<svg width="100" height="80" viewBox="0 0 100 80" fill="none" xmlns="http://www.w3.org/2000/svg">
<g clip-path="url(#clip0_4_4)">
<path d="M71.875 5C83.8469 5 93.6039 12.7344 93.7469 22.285C93.7039 22.5487 93.6703 22.8125 93.6617 23.0856L93.6219 25.0681C91.55 40.5319 64.557 62.895 49.9969 73.3638C35.5437 62.9781 8.82891 40.8637 6.42422 25.4L6.33906 23.0856C6.32969 22.8269 6.29922 22.5681 6.25 22.285C6.39687 12.7344 16.1531 5 28.125 5C34.7047 5 40.9 7.42188 45.1203 11.6406L50 16.5188L54.8797 11.6406C59.1 7.42188 65.2953 5 71.875 5ZM71.875 0C62.9852 0 55.1547 3.36438 50 8.51562C44.8453 3.36438 37.0148 0 28.125 0C12.5914 0 0 10.0731 0 22.5C0 22.7488 0.0820312 22.9831 0.0914062 23.2325H0C0 46.2987 50 80 50 80C50 80 100 46.2987 100 23.2325H99.9086C99.918 22.9831 100 22.7488 100 22.5C100 10.0731 87.4086 0 71.875 0Z" fill="#F44336"/>
</g>
<defs>
<clipPath id="clip0_4_4">
<rect width="100" height="80" fill="white"/>
</clipPath>
</defs>
</svg>
